<svg width="1024" height="256" viewBox="0 0 1024 256" fill="none" xmlns="http://www.w3.org/2000/svg">
<path d="M888 232V200H1016V232H888Z" fill="#5626D9"/>
<path d="M70.656 203.776C60.0747 203.776 51.6267 202.24 45.312 199.168C38.9973 195.925 34.2187 191.915 30.976 187.136C27.7333 182.187 25.6 176.981 24.576 171.52C23.552 166.059 23.04 161.024 23.04 156.416V96.512H0V65.536H23.04V32H61.952V65.536H90.88V96.512H61.952V155.392C61.952 161.024 63.4027 165.376 66.304 168.448C69.376 171.52 74.4106 173.056 81.408 173.056C84.48 173.056 87.296 172.8 89.856 172.288C92.416 171.776 93.696 171.52 93.696 171.52V201.472C93.696 201.472 91.392 201.813 86.784 202.496C82.176 203.349 76.8 203.776 70.656 203.776Z" fill="#11072C"/>
<path d="M119.442 251.136C114.834 251.136 111.165 250.965 108.434 250.624C105.703 250.283 104.338 250.112 104.338 250.112V218.88C104.338 218.88 105.447 218.965 107.666 219.136C110.055 219.307 112.957 219.392 116.37 219.392C124.562 219.392 131.303 218.197 136.594 215.808C141.885 213.589 146.493 209.152 150.418 202.496L100.242 65.536H139.154L170.642 157.44L201.362 65.536H240.53L191.89 195.84C187.453 208.299 182.077 218.624 175.762 226.816C169.618 235.008 162.023 241.067 152.978 244.992C143.933 249.088 132.754 251.136 119.442 251.136Z" fill="#11072C"/>
<path d="M250.944 201.216V65.536H289.856V83.968H291.136C294.037 79.0187 298.389 74.3253 304.192 69.888C309.995 65.28 317.931 62.976 328 62.976C338.24 62.976 346.432 65.3653 352.576 70.144C358.891 74.9227 363.499 80.8107 366.4 87.808H366.912C369.131 83.8827 372.032 80.0427 375.616 76.288C379.371 72.3627 383.979 69.2053 389.44 66.816C395.072 64.256 401.643 62.976 409.152 62.976C418.539 62.976 426.304 65.1093 432.448 69.376C438.592 73.6427 443.115 79.2747 446.016 86.272C449.088 93.0987 450.624 100.437 450.624 108.288V201.216H411.712V118.016C411.712 111.36 410.005 105.899 406.592 101.632C403.349 97.1946 398.4 94.976 391.744 94.976C386.624 94.976 382.443 96.256 379.2 98.816C376.128 101.376 373.824 104.704 372.288 108.8C370.923 112.725 370.24 116.821 370.24 121.088V201.216H331.328V118.016C331.328 111.36 329.621 105.899 326.208 101.632C322.965 97.1946 318.016 94.976 311.36 94.976C306.24 94.976 302.059 96.256 298.816 98.816C295.744 101.376 293.44 104.704 291.904 108.8C290.539 112.725 289.856 116.821 289.856 121.088V201.216H250.944Z" fill="#11072C"/>
<path d="M526.56 62.976C535.264 62.976 542.432 64.4267 548.064 67.328C553.696 70.0587 557.963 73.0453 560.864 76.288C563.936 79.5307 565.813 81.7493 566.496 82.944H568.544V65.536H607.456V201.216H568.544V183.808H566.496C565.813 185.003 563.936 187.221 560.864 190.464C557.963 193.707 553.696 196.779 548.064 199.68C542.432 202.411 535.264 203.776 526.56 203.776C516.491 203.776 507.701 201.813 500.192 197.888C492.853 193.792 486.709 188.416 481.76 181.76C476.811 174.933 473.056 167.339 470.496 158.976C468.107 150.613 466.912 142.08 466.912 133.376C466.912 124.672 468.107 116.139 470.496 107.776C473.056 99.4133 476.811 91.904 481.76 85.248C486.709 78.4213 492.853 73.0453 500.192 69.12C507.701 65.024 516.491 62.976 526.56 62.976ZM537.824 94.464C530.827 94.464 524.939 96.4267 520.16 100.352C515.552 104.107 512.053 108.971 509.664 114.944C507.445 120.917 506.336 127.061 506.336 133.376C506.336 139.691 507.445 145.835 509.664 151.808C512.053 157.781 515.552 162.731 520.16 166.656C524.939 170.411 530.827 172.288 537.824 172.288C544.821 172.288 550.624 170.411 555.232 166.656C560.011 162.731 563.509 157.781 565.728 151.808C568.117 145.835 569.312 139.691 569.312 133.376C569.312 127.061 568.117 120.917 565.728 114.944C563.509 108.971 560.011 104.107 555.232 100.352C550.624 96.4267 544.821 94.464 537.824 94.464Z" fill="#11072C"/>
<path d="M688.196 203.776C677.615 203.776 669.166 202.24 662.852 199.168C656.537 195.925 651.758 191.915 648.516 187.136C645.273 182.187 643.14 176.981 642.116 171.52C641.092 166.059 640.58 161.024 640.58 156.416V96.512H617.54V65.536H640.58V32H679.492V65.536H708.42V96.512H679.492V155.392C679.492 161.024 680.943 165.376 683.844 168.448C686.916 171.52 691.95 173.056 698.948 173.056C702.02 173.056 704.836 172.8 707.396 172.288C709.956 171.776 711.236 171.52 711.236 171.52V201.472C711.236 201.472 708.932 201.813 704.324 202.496C699.716 203.349 694.34 203.776 688.196 203.776Z" fill="#11072C"/>
<path d="M792.558 203.776C780.611 203.776 770.286 201.813 761.582 197.888C752.878 193.792 745.71 188.416 740.078 181.76C734.446 174.933 730.179 167.339 727.278 158.976C724.547 150.613 723.182 141.995 723.182 133.12C723.182 124.587 724.462 116.224 727.022 108.032C729.752 99.6693 733.849 92.0747 739.31 85.248C744.942 78.4213 752.024 73.0453 760.558 69.12C769.262 65.024 779.502 62.976 791.278 62.976C803.736 62.976 814.745 65.7067 824.302 71.168C834.03 76.6293 841.625 84.736 847.086 95.488C852.547 106.069 855.278 118.955 855.278 134.144V143.616H762.35C762.862 151.808 765.678 158.891 770.798 164.864C776.088 170.837 783.342 173.824 792.558 173.824C797.848 173.824 802.115 173.056 805.358 171.52C808.771 169.813 811.417 167.936 813.294 165.888C815.171 163.669 816.451 161.707 817.134 160C817.816 158.293 818.158 157.44 818.158 157.44H853.998C853.998 157.44 853.571 159.061 852.718 162.304C852.035 165.376 850.499 169.216 848.11 173.824C845.72 178.432 842.222 183.04 837.614 187.648C833.176 192.256 827.289 196.096 819.95 199.168C812.611 202.24 803.48 203.776 792.558 203.776ZM762.35 120.064H817.902C817.39 110.677 814.574 103.68 809.454 99.072C804.334 94.464 798.019 92.16 790.51 92.16C783 92.16 776.6 94.6347 771.31 99.584C766.019 104.363 763.032 111.189 762.35 120.064Z" fill="#11072C"/>
</svg>
